# AST/ASF file generated using VICON BodyLanguage
# -----------------------------------------------
:version 1.10
:name VICON
:units
  mass 1.0
  length 0.45
  angle deg
:documentation
   .ast/.asf automatically generated from VICON data using
   VICON BodyBuilder and BodyLanguage model FoxedUp or BRILLIANT.MOD
:root
   order TX TY TZ RX RY RZ
   axis XYZ
   position 0 0 0  
   orientation 0 -0 0 
:bonedata
  begin
     id 1 
     name lhipjoint
     direction 0.500677 -0.737119 0.453848 
     length 2.34727 
     axis 0 -0 0  XYZ
  end
  begin
     id 2 
     name lfemur
     direction 0.34202 -0.939693 0  
     length 7.53653  
     axis 0 -0 20  XYZ
    dof rx ry rz
    limits (-160.0 20.0)
           (-70.0 70.0)
           (-60.0 70.0)
  end
  begin
     id 3 
     name ltibia
     direction 0.34202 -0.939693 0   
     length 6.85572   
     axis 0 -0 20   XYZ
    dof rx
    limits (-10.0 170.0)
  end
  begin
     id 4 
     name lfoot
     direction 0.155313 -0.426718 0.890949   
     length 2.18324   
     axis -90 -1.13533e-015 20   XYZ
    dof rx rz
    limits (-45.0 90.0)
           (-70.0 20.0)
  end
  begin
     id 5 
     name ltoes
     direction 1.53474e-011 -4.21647e-011 1   
     length 1.06748   
     axis -90 -1.13533e-015 20   XYZ
    dof rx
    limits (-90.0 20.0)
  end
  begin
     id 6 
     name rhipjoint
     direction -0.632471 -0.659587 0.406111   
     length 2.62319  
     axis 0 -0 0  XYZ 
  end
  begin
     id 7 
     name rfemur
     direction -0.34202 -0.939693 0   
     length 7.21735   
     axis 0 -0 -20   XYZ
    dof rx ry rz
    limits (-160.0 20.0)
           (-70.0 70.0)
           (-70.0 60.0)
  end
  begin
     id 8 
     name rtibia
     direction -0.34202 -0.939693 0   
     length 7.02558   
     axis 0 -0 -20   XYZ
    dof rx
    limits (-10.0 170.0)
 end
 begin
     id 9 
     name rfoot
     direction -0.16057 -0.441164 0.882945   
     length 2.10014  
     axis -90 1.13533e-015 -20   XYZ
    dof rx rz
    limits (-45.0 90.0)
           (-20.0 70.0)
  end
  begin
     id 10 
     name rtoes
     direction -1.53553e-011 -4.2192e-011 1   
     length 1.02554   
     axis -90 1.13533e-015 -20   XYZ
    dof rx
    limits (-90.0 20.0)
  end
  begin
     id 11 
     name lowerback
     direction 0.0401429 0.998861 -0.0258085   
     length 1.80848   
     axis 0 -0 0   XYZ
    dof rx ry rz
    limits (-20.0 45.0)
           (-30.0 30.0)
           (-30.0 30.0)
  end
  begin
     id 12 
     name upperback
     direction -0.0130978 0.999914 -0.000352645   
     length 1.8116   
     axis 0 -0 0   XYZ
    dof rx ry rz
    limits (-20.0 45.0)
           (-30.0 30.0)
           (-30.0 30.0)
  end
  begin
     id 13 
     name thorax
     direction -0.0300198 0.999453 0.0138573   
     length 1.81778   
     axis 0 -0 0   XYZ
    dof rx ry rz
    limits (-20.0 45.0)
           (-30.0 30.0)
           (-30.0 30.0)
  end
  begin
     id 14 
     name lowerneck
     direction -0.0401726 0.999191 -0.00173647   
     length 2.10594   
     axis 0 -0 0   XYZ
    dof rx ry rz
    limits (-20.0 45.0)
           (-30.0 30.0)
           (-30.0 30.0)
  end
  begin
     id 15 
     name upperneck
     direction 0.0119835 0.998501 0.0534085   
     length 2.07325   
     axis 0 -0 0   XYZ
    dof rx ry rz
    limits (-20.0 45.0)
           (-30.0 30.0)
           (-30.0 30.0)
  end
  begin
     id 16
     name head
     direction 0.00628309 0.999826 0.0175921  
     length 2.15096  
     axis 0 -0 0   XYZ
    dof rx ry rz
    limits (-20.0 45.0)
           (-30.0 30.0)
           (-30.0 30.0)
  end
  begin
     id 17 
     name lclavicle
     direction 0.895501 0.429681 -0.115981  
     length 4.18092  
     axis 0 -0 0   XYZ
    dof ry rz
    limits (-20.0 10.0)
           (0.0 20.0)
  end
  begin
     id 18 
     name lhumerus
     direction 1 -4.48961e-011 -3.38433e-028   
     length 5.77237   
     axis 180 -30 -90   XYZ
    dof rx ry rz
    limits (-60.0 90.0)
           (-90.0 90.0)
           (-90.0 90.0)
  end
  begin
     id 19
     name lradius
     direction 1 -4.4901e-011 1.11983e-026   
     length 2.91878   
     axis 180 -30 -90   XYZ
    dof rx
    limits (-10.0 170.0)
  end
  begin
     id 20
     name lwrist
     direction 1 -4.48934e-011 1.88176e-026   
     length 1.45939   
     axis -1.23311e-014 90 90   XYZ
    dof ry
    limits (-180.0 0.0)
 end
  begin
     id 21 
     name lhand
     direction 1 -4.4895e-011 3.76352e-026   
     length 1.06566   
     axis -2.40147e-014 90 90   XYZ
    dof rx rz
    limits (-90.0 90.0)
           (-45.0 45.0)
  end
  begin
     id 22 
     name lfingers
     direction 1 -4.49005e-011 7.52705e-026   
     length 0.859162   
     axis -4.80295e-014 90 90   XYZ
    dof rx
    limits (0.0 90.0)
  end
  begin
     id 23
     name lthumb
     direction 0.707107 -6.34885e-011 0.707107   
     length 1.23359   
     axis -90 45 -9.86935e-015   XYZ
    dof rx rz
    limits (-45.0 45.0)
           (-45.0 45.0)
  end
  begin
     id 24 
     name rclavicle
     direction -0.91006 0.40451 -0.0903492   
     length 4.23293  
     axis 0 -0 0   XYZ 
    dof ry rz
    limits (-10.0 20.0)
           (-20.0 0.0)
  end
  begin
     id 25 
     name rhumerus
     direction -1 -4.4897e-011 1.7415e-027  
     length 5.49854   
     axis 180 30 90   XYZ
    dof rx ry rz
    limits (-90.0 60.0)
           (-90.0 90.0)
           (-90.0 90.0)
  end
  begin
     id 26 
     name rradius
     direction -1 -4.48963e-011 1.21259e-026   
     length 3.1186   
     axis 180 30 90   XYZ
    dof rx
    limits (-10.0 170.0)
  end
  begin
     id 27 
     name rwrist
     direction -1 -4.48967e-011 1.88176e-026   
     length 1.5593   
     axis -1.23311e-014 -90 -90   XYZ
    dof ry
    limits (-180.0 0.0)
  end
  begin
     id 28
     name rhand
     direction -1 -4.4895e-011 3.76352e-026   
     length 0.71207   
     axis -2.40147e-014 -90 -90   XYZ
    dof rx rz
    limits (-90.0 90.0)
           (-45.0 45.0)
  end
  begin
     id 29
     name rfingers
     direction -1 -4.49005e-011 7.52705e-026   
     length 0.574089   
     axis -4.80295e-014 -90 -90   XYZ
    dof rx
    limits (0.0 90.0)
  end
  begin
     id 30
     name rthumb
     direction -0.707107 -6.34982e-011 0.707107   
     length 0.824281   
     axis -90 -45 9.86935e-015   XYZ
    dof rx rz
    limits (-45.0 45.0)
           (-45.0 45.0)
  end
:hierarchy
  begin
    root lhipjoint rhipjoint lowerback
    lhipjoint lfemur
    lfemur ltibia
    ltibia lfoot
    lfoot ltoes
    rhipjoint rfemur
    rfemur rtibia
    rtibia rfoot
    rfoot rtoes
    lowerback upperback
    upperback thorax
    thorax lowerneck lclavicle rclavicle
    lowerneck upperneck
    upperneck head
    lclavicle lhumerus
    lhumerus lradius
    lradius lwrist
    lwrist lhand lthumb
    lhand lfingers
    rclavicle rhumerus
    rhumerus rradius
    rradius rwrist
    rwrist rhand rthumb
    rhand rfingers
  end

#!OML:ASF C:\ViconDB\ViconDB\414\Spring2016\042216\male.ASF
:FULLY-SPECIFIED
:DEGREES
285
root -37.7649 16.1386 12.6683 -155.19 73.3571 -176.343
lowerback 0.914128 -4.63552 6.92877
upperback 1.41354 -6.13255 0.630563
thorax 0.295287 -3.0074 -3.12997
lowerneck 0.673277 0.156159 -6.05407
upperneck -23.8368 1.65067 5.03271
head -7.47795 1.26773 2.53713
rclavicle 1.0138e-014 3.57812e-015
rhumerus -43.2377 -10.7311 -81.5798
rradius 31.9961
rwrist 12.9038
rhand 1.31182 -26.554
rfingers 7.12502
rthumb 26.8463 -54.6681
lclavicle 1.0138e-014 3.57812e-015
lhumerus -16.2603 -9.98691 98.3455
lradius 78.2359
lwrist 16.192
lhand -21.3321 15.2006
lfingers 7.12502
lthumb 5.05368 45.1204
rfemur -56.7787 -5.05595 24.9564
rtibia 57.1907
rfoot -23.8718 -11.3529
rtoes -13.9212
lfemur 6.70697 -12.4489 -15.5819
ltibia -3.18055e-014
lfoot -30.2135 12.2434
ltoes -26.7679
286
root -37.5212 16.0675 12.6738 -154.615 72.8956 -176.07
lowerback 1.15121 -4.77244 7.54098
upperback 1.12775 -6.27907 0.583098
thorax -0.217167 -3.10248 -3.46862
lowerneck 1.33958 0.225879 -5.63425
upperneck -24.3873 1.76907 4.99269
head -7.78399 1.28991 2.44753
rclavicle -6.44062e-014 7.71285e-014
rhumerus -44.9701 -10.3623 -81.5295
rradius 32.8421
rwrist 12.4668
rhand 1.29294 -26.4887
rfingers 7.12502
rthumb 26.8282 -54.6056
lclavicle -6.44062e-014 7.71285e-014
lhumerus -15.7392 -11.4086 97.7288
lradius 80.3764
lwrist 15.7015
lhand -21.2308 14.3562
lfingers 7.12502
lthumb 5.15151 44.2736
rfemur -57.18 -5.33871 25.532
rtibia 57.7009
rfoot -22.4862 -10.0503
rtoes -14.5763
lfemur 7.17048 -12.7625 -15.1051
ltibia -6.99722e-014
lfoot -29.6516 12.2376
ltoes -27.6124
287
root -37.2689 16.0004 12.6796 -154.964 72.7846 -176.614
lowerback 1.23725 -4.81351 7.50409
upperback 1.27178 -6.32692 0.798338
thorax -0.093548 -3.11583 -3.22659
lowerneck 1.04797 0.120581 -5.91786
upperneck -24.9595 1.67338 4.95285
head -7.92097 1.30284 2.49457
rclavicle 2.01766e-014 -4.8901e-014
rhumerus -45.561 -9.80496 -81.0603
rradius 33.2835
rwrist 12.612
rhand 1.6692 -25.4091
rfingers 7.12502
rthumb 27.1882 -53.4702
lclavicle 2.01766e-014 -4.8901e-014
lhumerus -14.4556 -12.4702 97.5974
lradius 82.1567
lwrist 15.2159
lhand -21.8357 13.0822
lfingers 7.12502
lthumb 4.56743 43.013
rfemur -57.3191 -5.48798 25.7413
rtibia 58.5002
rfoot -20.8067 -8.75524
rtoes -11.8984
lfemur 7.83745 -12.8739 -15.024
ltibia 6.36111e-015
lfoot -29.0667 11.8834
ltoes -28.8658
288
root -37.0122 15.9393 12.6913 -154.599 72.5284 -176.486
lowerback 1.25465 -4.86708 8.09358
upperback 1.23254 -6.39047 0.628029
thorax -0.232513 -3.15135 -3.71421
lowerneck 1.4398 0.123272 -5.39796
upperneck -25.5804 1.75295 4.93518
head -8.20261 1.30613 2.39795
rclavicle 6.75868e-014 1.74931e-014
rhumerus -46.4594 -9.39851 -81.5793
rradius 33.9616
rwrist 12.8334
rhand 1.43069 -26.4656
rfingers 7.12502
rthumb 26.96 -54.5621
lclavicle 6.75868e-014 1.74931e-014
lhumerus -13.796 -13.6269 96.8395
lradius 84.0146
lwrist 15.2533
lhand -22.1886 12.2429
lfingers 7.12502
lthumb 4.22664 42.1807
rfemur -57.2713 -5.51189 26.2495
rtibia 59.5711
rfoot -21.5384 -9.38387
rtoes -13.3126
lfemur 8.37679 -13.0271 -14.5827
ltibia -6.04305e-014
lfoot -28.4134 11.3225
ltoes -30.2172
289
root -36.7456 15.8847 12.7002 -155.011 72.4216 -176.975
lowerback 1.53541 -4.89271 8.01209
upperback 1.25043 -6.39327 0.84009
thorax -0.338632 -3.15406 -3.4274
lowerneck 1.41758 0.0534669 -5.60845
upperneck -26.0277 1.66751 4.86877
head -8.3486 1.30819 2.42189
rclavicle 5.22804e-014 -4.05521e-014
rhumerus -46.9304 -8.87064 -81.2174
rradius 34.3585
rwrist 13.3598
rhand 1.49309 -26.0143
rfingers 7.12502
rthumb 27.0197 -54.1016
lclavicle 5.22804e-014 -4.05521e-014
lhumerus -12.9247 -14.461 96.5927
lradius 85.5472
lwrist 14.7948
lhand -22.1979 11.637
lfingers 7.12502
lthumb 4.21768 41.5749
rfemur -56.809 -5.75622 26.5841
rtibia 60.9803
rfoot -22.6383 -10.0221
rtoes -10.4275
lfemur 9.11814 -13.1427 -14.4737
ltibia 1.90833e-014
lfoot -27.2724 10.6523
ltoes -31.5809
290
root -36.4535 15.8419 12.6951 -154.871 72.2432 -177.063
lowerback 1.41239 -4.99591 8.57034
upperback 1.19943 -6.53292 0.830671
thorax -0.400634 -3.22513 -3.74111
lowerneck 1.41546 0.0748332 -5.52387
upperneck -26.3191 1.73792 4.86773
head -8.45214 1.34443 2.40406
rclavicle 3.08116e-015 -4.37326e-015
rhumerus -47.3503 -8.16263 -81.4605
rradius 34.9732
rwrist 12.9448
rhand 1.18316 -26.4965
rfingers 7.12502
rthumb 26.7231 -54.6294
lclavicle 3.08116e-015 -4.37326e-015
lhumerus -12.5146 -14.6812 96.1059
lradius 87.0504
lwrist 14.0136
lhand -21.6567 11.5048
lfingers 7.12502
lthumb 4.74028 41.4318
rfemur -56.344 -6.07033 27.0739
rtibia 62.3598
rfoot -23.8654 -9.91151
rtoes -12.5889
lfemur 8.67011 -13.2414 -14.1714
ltibia 2.32624
lfoot -27.415 9.84478
ltoes -32.4917
291
root -36.1547 15.8066 12.6998 -155.441 72.2467 -177.764
lowerback 1.5911 -5.0617 8.5827
upperback 1.11274 -6.59616 0.876351
thorax -0.594761 -3.26637 -3.67524
lowerneck 1.38081 0.0493646 -5.79469
upperneck -26.5884 1.78146 5.17179
head -8.54414 1.37444 2.55417
rclavicle -3.37934e-014 -1.66979e-014
rhumerus -47.5766 -7.91616 -81.3078
rradius 35.4086
rwrist 12.9523
rhand 1.26373 -26.367
rfingers 7.12502
rthumb 26.8002 -54.4881
lclavicle -3.37934e-014 -1.66979e-014
lhumerus -12.2771 -15.0124 95.8594
lradius 88.2156
lwrist 15.9994
lhand -22.411 9.83467
lfingers 7.12502
lthumb 4.01185 39.7766
rfemur -55.8407 -6.51375 27.3898
rtibia 63.6015
rfoot -24.9149 -9.49259
rtoes -14.0357
lfemur 7.81033 -13.2558 -14.1401
ltibia 5.66019
lfoot -27.3798 9.26807
ltoes -33.991
292
root -35.8477 15.7696 12.7043 -154.575 72.3149 -177.04
lowerback 1.59203 -4.99378 9.04289
upperback 1.03653 -6.49064 1.00579
thorax -0.695744 -3.2173 -3.79275
lowerneck 1.33404 0.0122923 -5.95653
upperneck -26.8269 1.76498 5.25459
head -8.61886 1.38546 2.61428
rclavicle -5.66536e-015 -2.42517e-014
rhumerus -47.6751 -7.76244 -81.0753
rradius 35.9968
rwrist 12.3864
rhand 1.2282 -25.8195
rfingers 7.12502
rthumb 26.7662 -53.9459
lclavicle -5.66536e-015 -2.42517e-014
lhumerus -12.0198 -14.6621 95.4872
lradius 89.0156
lwrist 14.6839
lhand -20.4719 9.96597
lfingers 7.12502
lthumb 5.88419 39.8643
rfemur -55.1859 -6.35968 27.8921
rtibia 64.4747
rfoot -25.9486 -9.65694
rtoes -14.962
lfemur 7.17982 -13.0236 -13.6584
ltibia 8.48556
lfoot -26.7023 8.17498
ltoes -35.1787
293
root -35.5444 15.7333 12.706 -155.596 72.6288 -178.24
lowerback 1.82971 -4.95834 8.83064
upperback 0.95394 -6.41865 0.948938
thorax -0.889009 -3.19279 -3.71313
lowerneck 1.05527 -0.0284607 -5.90091
upperneck -26.9502 1.75932 5.26365
head -8.60983 1.39071 2.60922
rclavicle -9.60627e-014 4.6118e-014
rhumerus -47.5448 -7.33624 -81.2089
rradius 36.878
rwrist 11.1667
rhand 0.986016 -25.8714
rfingers 7.12502
rthumb 26.5345 -54.033
lclavicle -9.60627e-014 4.6118e-014
lhumerus -12.0295 -14.0913 95.0309
lradius 89.6545
lwrist 13.1245
lhand -18.5267 10.7399
lfingers 7.12502
lthumb 7.76197 40.5774
rfemur -54.4755 -6.04117 27.5362
rtibia 65.1739
rfoot -26.6103 -9.67045
rtoes -17.2234
lfemur 6.36429 -12.8113 -13.8676
ltibia 11.6009
lfoot -25.6274 6.5906
ltoes -36.3414
294
root -35.2339 15.7029 12.6982 -155.384 72.6854 -178.422
lowerback 1.69899 -4.92815 9.11686
upperback 0.815644 -6.37965 1.00787
thorax -0.978543 -3.1811 -3.81415
lowerneck 1.03132 -0.0371518 -5.9617
upperneck -27.3876 1.81649 5.34509
head -8.76266 1.43468 2.64791
rclavicle 3.21534e-014 -3.97569e-015
rhumerus -47.1102 -7.35574 -81.089
rradius 37.6189
rwrist 10.0945
rhand 0.774698 -25.84
rfingers 7.12502
rthumb 26.3322 -54.0321
lclavicle 3.21534e-014 -3.97569e-015
lhumerus -12.1951 -13.4718 94.9308
lradius 90.1433
lwrist 13.9574
lhand -18.1573 11.1054
lfingers 7.12502
lthumb 8.11854 40.9295
rfemur -53.8812 -6.02601 27.7366
rtibia 65.7301
rfoot -27.3197 -9.71187
rtoes -18.5354
lfemur 4.94528 -12.9957 -13.6654
ltibia 15.3113
lfoot -24.0308 5.11233
ltoes -37.5291
295
root -34.9235 15.6786 12.6948 -154.424 72.9413 -177.761
lowerback 1.59481 -4.81064 9.44031
upperback 0.766489 -6.22294 1.13003
thorax -0.970584 -3.10271 -3.88
lowerneck 0.777387 -0.108134 -5.81023
upperneck -27.625 1.7528 5.21772
head -8.79398 1.41893 2.58463
rclavicle -1.8487e-014 1.09332e-015
rhumerus -46.5039 -6.6263 -81.4773
rradius 38.7677
rwrist 9.12419
rhand 0.483499 -26.4937
rfingers 7.12502
rthumb 26.0534 -54.7271
lclavicle -1.8487e-014 1.09332e-015
lhumerus -12.4017 -13.6779 94.8172
lradius 90.4985
lwrist 18.253
lhand -20.2136 10.939
lfingers 7.12502
lthumb 6.13359 40.8302
rfemur -53.1218 -5.75984 28.0764
rtibia 66.1363
rfoot -28.1539 -9.43862
rtoes -19.621
lfemur 3.28993 -12.6227 -13.2826
ltibia 19.5176
lfoot -21.6098 3.1651
ltoes -38.1605
296
root -34.6204 15.6453 12.6964 -154.677 73.2382 -178.202
lowerback 1.79792 -4.79369 9.44094
upperback 0.652978 -6.17072 1.12414
thorax -1.19628 -3.08996 -3.86463
lowerneck 0.763 -0.0861816 -5.94388
upperneck -27.9704 1.8649 5.41574
head -8.92183 1.48128 2.67159
rclavicle -1.05604e-014 5.41688e-015
rhumerus -45.7076 -5.93726 -81.8722
rradius 39.5841
rwrist 8.43693
rhand -0.0814497 -26.2747
rfingers 7.12502
rthumb 25.5124 -54.5866
lclavicle -1.05604e-014 5.41688e-015
lhumerus -12.6004 -13.3748 94.7039
lradius 90.5453
lwrist 21.2044
lhand -21.7126 11.2286
lfingers 7.12502
lthumb 4.68633 41.1568
rfemur -52.1372 -5.6209 28.0707
rtibia 66.3572
rfoot -28.5472 -9.45953
rtoes -21.7452
lfemur 1.47425 -12.3438 -13.2008
ltibia 24.1985
lfoot -18.5311 0.689546
ltoes -37.6776
297
root -34.3161 15.6275 12.6982 -153.942 73.4465 -177.776
lowerback 1.83326 -4.73187 9.69683
upperback 0.482139 -6.06826 1.16211
thorax -1.40239 -3.05362 -3.958
lowerneck 0.822924 -0.0866294 -5.81897
upperneck -28.2294 1.92005 5.48427
head -9.02734 1.49605 2.67222
rclavicle -7.28297e-014 -1.18277e-014
rhumerus -44.9721 -4.73945 -82.7265
rradius 41.0878
rwrist 7.31217
rhand -0.703026 -26.9453
rfingers 7.12502
rthumb 24.9168 -55.3411
lclavicle -7.28297e-014 -1.18277e-014
lhumerus -13.1235 -12.7994 94.4596
lradius 90.2193
lwrist 22.7209
lhand -22.255 10.6413
lfingers 7.12502
lthumb 4.1625 40.5804
rfemur -51.1193 -5.37795 28.376
rtibia 66.2714
rfoot -29.3585 -9.45245
rtoes -22.7504
lfemur -0.858873 -11.4603 -12.685
ltibia 29.2464
lfoot -15.1504 -1.67433
ltoes -36.1327
298
root -34.0141 15.6053 12.7038 -153.787 73.9946 -177.618
lowerback 2.26472 -4.59948 9.53109
upperback 0.385501 -5.83752 1.21071
thorax -1.6912 -2.95211 -3.79055
lowerneck 0.751865 -0.0649417 -5.92781
upperneck -28.2722 1.98333 5.59741
head -9.03484 1.53042 2.72627
rclavicle 7.17488e-014 -3.64273e-014
rhumerus -43.9873 -3.58423 -83.3816
rradius 42.5414
rwrist 6.45211
rhand -1.01488 -26.895
rfingers 7.12502
rthumb 24.618 -55.3318
lclavicle 7.17488e-014 -3.64273e-014
lhumerus -13.619 -12.0238 94.3409
lradius 89.4874
lwrist 22.7174
lhand -22.163 10.2192
lfingers 7.12502
lthumb 4.25135 40.1565
rfemur -49.6218 -5.0933 28.4256
rtibia 65.9744
rfoot -30.3647 -8.98447
rtoes -23.0088
lfemur -2.95843 -10.9838 -12.7162
ltibia 34.526
lfoot -12.1449 -2.42871
ltoes -34.4603
